# xmcd CD database file
#
# Track frame offsets:
#	183
#	17680
#	36765
#	47300
#	70708
#	95378
#	113938
#	139783
#	156905
#	178158
#	199740
#	223183
#	240783
#
# Disc length: 3454 seconds
#
# Revision: 2
# Processed by: cddbd v1.5.2PL0 Copyright (c) Steve Scherf et al.
# Submitted via: CDex 1.51
#
DISCID=aa0d7c0d
DTITLE=Hans Olson - Hans Olson
DYEAR=1992
DGENRE=Blues
TTITLE0=You Wish
TTITLE1=Who's Trying To Run My Life
TTITLE2=Give Me A Nickel
TTITLE3=Radiation Blues
TTITLE4=Staterboro blues
TTITLE5=Going Back To Dallas - Rollin' and Tumblin'
TTITLE6=Western Winds
TTITLE7=Golden Rule
TTITLE8=Come On (If You're Coming)
TTITLE9=50 Ups and 50 Downs
TTITLE10=The Next Car
TTITLE11=Cold Outside
TTITLE12=I Feel Like Going Home
EXTD=YEAR: 1992
EXTT0=
EXTT1=
EXTT2=
EXTT3=
EXTT4=
EXTT5=
EXTT6=
EXTT7=
EXTT8=
EXTT9=
EXTT10=
EXTT11=
EXTT12=
PLAYORDER=
